<svg width="32" height="32" viewBox="0 0 32 32" fill="none" xmlns="http://www.w3.org/2000/svg">
  <style>
    path { fill: #8b5cf6; } /* Фиолетовый по умолчанию */
    @media (prefers-color-scheme: dark) {
      path { fill: #ec4899; } /* Розовый для темной темы */
    }
  </style>
  <path d="M16 2L4 7V15C4 22.39 9.13 29.24 16 31C22.87 29.24 28 22.39 28 15V7L16 2ZM16 16.5V25H14V16.5C12.26 16.14 11 14.6 11 12.75C11 10.68 12.68 9 14.75 9C16.82 9 18.5 10.68 18.5 12.75C18.5 14.6 17.24 16.14 15.5 16.5V25H16.5V16.5C18.24 16.14 19.5 14.6 19.5 12.75C19.5 10.68 17.82 9 15.75 9C13.68 9 12 10.68 12 12.75C12 14.6 13.26 16.14 15 16.5V25H16Z" />
</svg>