<svg width="32" height="32" fill="none" xmlns="http://www.w3.org/2000/svg"><g clip-path="url(#a)"><mask id="b" style="mask-type:luminance" maskUnits="userSpaceOnUse" x="0" y="0" width="32" height="32"><path d="M32 0H0v32h32V0Z" fill="#fff"/></mask><g mask="url(#b)"><path d="M24 0H8a8 8 0 0 0-8 8v16a8 8 0 0 0 8 8h16a8 8 0 0 0 8-8V8a8 8 0 0 0-8-8Z" fill="#FC3234"/><path fill-rule="evenodd" clip-rule="evenodd" d="M25.96 7.17c0-.64-.52-1.17-1.17-1.17H7.17C6.53 6 6 6.53 6 7.17v4.11c0 .65.53 1.18 1.17 1.18h4.14c.65 0 1.17.52 1.17 1.17v11.2c0 .64.53 1.17 1.18 1.17h4.68c.65 0 1.18-.53 1.18-1.17v-11.2c0-.65.52-1.17 1.17-1.17h4.1c.65 0 1.17-.53 1.17-1.18v-4.1Z" fill="#fff"/></g></g><defs><clipPath id="a"><path fill="#fff" d="M0 0h32v32H0z"/></clipPath></defs></svg>